<?xml version="1.0" encoding="utf-8"?>
<!-- Generator: Adobe Illustrator 27.5.0, SVG Export Plug-In . SVG Version: 6.00 Build 0)  -->
<svg version="1.1" id="Capa_1" xmlns="http://www.w3.org/2000/svg" xmlns:xlink="http://www.w3.org/1999/xlink" x="0px" y="0px"
	 viewBox="0 0 505.5 382" style="enable-background:new 0 0 505.5 382;" xml:space="preserve">
<style type="text/css">
	.st0{fill:#279D2E;}
	.st1{fill:#3C3C3B;}
	.st2{fill:#25B4BD;}
</style>
<g>
	<g>
		<path class="st0" d="M57.5,247.1c0-16.5,9.1-26.8,26.4-26.8c8.3,0,13.7,2.5,18.3,5.8l-4.8,12.3c-3.4-3.6-7.5-5.5-12.4-5.5
			c-6.7,0-12.1,4.4-12.1,14.1c0,9.7,5.8,14.3,12.1,14.3c4.9,0,9-2,12.4-5.5l4.8,12.3c-4.7,3.1-10.1,5.8-18.3,5.8
			C67.1,273.9,57.5,263.6,57.5,247.1"/>
	</g>
	<g>
		<path class="st0" d="M106.3,246.9c0-16.6,8.4-26.6,25.7-26.6c17.2,0,25.6,10,25.6,26.6c0,16.9-8.5,27-25.6,27
			C114.8,273.9,106.3,263.8,106.3,246.9 M142.1,246.8c0-9.9-3.1-14.6-10.1-14.6c-7.1,0-10.3,4.7-10.3,14.6c0,9.6,3.1,15.1,10.3,15.1
			C139,261.9,142.1,257,142.1,246.8"/>
	</g>
	<g>
		<path class="st0" d="M245.5,238.6V273h-15.2v-30.6c0-6.6-2.4-9.5-7.8-9.5c-5.1,0-8.6,3.6-9.1,11.3V273h-14.8v-30.6
			c0-6.6-2.4-9.5-7.8-9.5c-5.2,0-8.7,3.5-9.2,11.3V273h-15v-52h11.2l2.7,9.2c2.8-6.7,8.6-9.9,15.8-9.9c8,0,13.5,3.2,15.8,9.9
			c2.8-6.7,8.5-9.9,15.9-9.9C239.1,220.4,245.5,226.4,245.5,238.6"/>
	</g>
	<g>
		<path class="st0" d="M307.7,247.2c0,16.6-7,26.7-20.8,26.7c-7.2,0-12.1-3-15-8.3v21h-15v-65.5h11.3l2.4,9.2
			c2.7-6.7,7.6-10,15.9-10C300.7,220.3,307.7,230.4,307.7,247.2 M292.2,247.3c0-9.6-3.5-15-10.4-15c-7.4,0-9.9,5.9-9.9,15
			c0,9.4,2.9,14.7,9.9,14.7C288.6,261.9,292.2,256.6,292.2,247.3"/>
	</g>
	<g>
		<path class="st0" d="M348.8,220.7v15.4c-1.9-0.4-3.8-0.5-5.6-0.4c-7.5,0-10.7,4.4-11.2,12.8v-0.2l-0.1,24.8H317v-52h11.2l3.1,10.3
			c2.5-6.8,7.9-11.2,14.3-11.1C347.2,220.4,348,220.5,348.8,220.7"/>
	</g>
	<g>
		<path class="st0" d="M399.7,240.7v32.4h-11.1l-2.7-9.5c-2.5,6.4-8.1,10.3-16.6,10.3c-11.2,0-15.6-6.4-15.6-14.7
			c0-14.5,14.6-16.1,31.3-17.7v-0.2c0-6.5-4.4-9-11.2-9c-4.9,0-10.4,2.2-14.5,6.2l-5.9-11.1c4.9-3.6,12.3-7,22-7
			C392.2,220.5,399.6,227.7,399.7,240.7 M384.9,253.4v-3.7c-9.6,1.1-16.3,2.1-16.3,7.9c0,3.2,1.6,5.3,5.9,5.3
			C379.3,262.9,384.6,260.2,384.9,253.4"/>
	</g>
	<g>
		<path class="st0" d="M407.1,268.1l4.7-11.8c4.3,3.5,10.4,5.8,16.5,5.8c5,0,8.5-1.6,8.5-4.9c0-8.5-28.2-0.7-28.2-21
			c0-11.2,10.3-16,21.5-16c9.4,0,16,2.5,21,5.1l-4.6,11.7c-3.9-3-9.4-5.1-14.8-5.1c-4.3,0-8.5,1.3-8.5,4.7c0,7.8,28.2,0.9,28.2,20.7
			c0,11-8,16.5-21.7,16.5C418.9,273.8,412,271.2,407.1,268.1"/>
	</g>
	<g>
		<path class="st1" d="M107.4,163c0,12.3-6.9,20.3-22.9,20.3H73.9v19H59v-59.9h25.5C100.4,142.4,107.4,150.4,107.4,163 M92.4,163
			c0-5.7-2.6-8.4-8.8-8.4h-9.7v16.8h9.7C89.8,171.4,92.4,168.2,92.4,163"/>
	</g>
	<g>
		<path class="st1" d="M144.9,152.5v14.7c-1.8-0.3-3.6-0.5-5.3-0.4c-7.1,0-10.2,4.2-10.6,12.2v-0.2l-0.1,23.7h-14.2v-49.6h10.6
			l2.9,9.9c2.4-6.5,7.5-10.6,13.6-10.5C143.3,152.1,144.1,152.2,144.9,152.5"/>
	</g>
	<g>
		<path class="st1" d="M148.5,177.4c0-15.9,8-25.4,24.5-25.4c16.4,0,24.4,9.5,24.4,25.4c0,16.1-8.1,25.7-24.4,25.7
			C156.6,203.1,148.5,193.5,148.5,177.4 M182.6,177.3c0-9.4-2.9-13.9-9.6-13.9c-6.8,0-9.8,4.5-9.8,13.9c0,9.2,3,14.4,9.8,14.4
			C179.7,191.7,182.6,187,182.6,177.3"/>
	</g>
	<g>
		<path class="st1" d="M248.1,152.8l-16.3,49.6h-16.1l-16.3-49.6h14.4l8.7,29.9c0.5,2.2,0.9,4.5,1.3,6.7c0.3-2.1,0.7-4.5,1.2-6.7
			l8.7-29.9L248.1,152.8L248.1,152.8z"/>
	</g>
	<g>
		<path class="st1" d="M254,139.4h14.2v9.2H254V139.4z M254,152.8h14.2v49.5H254V152.8z"/>
	</g>
	<g>
		<path class="st1" d="M324.6,169.5v32.8h-14.3v-29.1c0-6.3-2.3-9.1-7.5-9.1c-5.7,0-9,3.3-9.4,10.8v27.4h-14.2v-49.6h10.5l2.6,8.7
			c2.7-6.5,8.3-9.4,15.6-9.4C318.6,152.1,324.6,157.9,324.6,169.5"/>
	</g>
	<g>
		<path class="st1" d="M332.8,177.6c0-15.8,8.7-25.5,25.2-25.5c7.9,0,13,2.4,17.5,5.5l-4.5,11.7c-3.3-3.4-7.1-5.2-11.8-5.2
			c-6.4,0-11.6,4.2-11.6,13.5s5.6,13.6,11.6,13.6c4.7,0,8.6-1.9,11.8-5.2l4.5,11.7c-4.5,3-9.6,5.5-17.5,5.5
			C341.9,203.1,332.8,193.4,332.8,177.6"/>
	</g>
	<g>
		<path class="st1" d="M382.8,139.4H397v9.2h-14.2V139.4z M382.8,152.8H397v49.5h-14.2V152.8z"/>
	</g>
	<g>
		<path class="st1" d="M449.6,171.5v30.9H439l-2.6-9.1c-2.4,6.1-7.7,9.9-15.9,9.9c-10.7,0-14.9-6.1-14.9-14
			c0-13.8,13.9-15.3,29.8-16.9v-0.2c0-6.2-4.2-8.6-10.7-8.6c-4.7,0-9.9,2.1-13.8,5.9l-5.7-10.5c4.6-3.4,11.7-6.7,21-6.7
			C442.4,152.2,449.5,159.1,449.6,171.5 M435.5,183.6v-3.5c-9.2,1-15.5,2-15.5,7.5c0,3.1,1.5,5.1,5.7,5.1
			C430.1,192.7,435.2,190.1,435.5,183.6"/>
	</g>
	<g>
		<path class="st0" d="M98.2,121.3L98.2,121.3c-21.6,0-39-17.5-39-39v-39h78.1v39C137.3,103.8,119.8,121.3,98.2,121.3"/>
	</g>
	<g>
		<path class="st2" d="M176.3,121.3L176.3,121.3c-21.6,0-39-17.5-39-39v-39h78.1v39C215.3,103.8,197.9,121.3,176.3,121.3"/>
	</g>
	<g>
		<path class="st0" d="M410.5,121.3L410.5,121.3c-21.6,0-39-17.5-39-39v-39h78.1v39C449.6,103.8,432.1,121.3,410.5,121.3"/>
	</g>
	<g>
		<path class="st0" d="M254.4,121.3L254.4,121.3c-21.6,0-39-17.5-39-39v-39h78.1v39C293.4,103.8,275.9,121.3,254.4,121.3"/>
	</g>
	<g>
		<path class="st2" d="M332.5,121.3L332.5,121.3c-21.6,0-39-17.5-39-39v-39h78.1v39C371.5,103.8,354,121.3,332.5,121.3"/>
	</g>
	<g>
		<path class="st1" d="M119.9,331.1c-1.1-0.6-1.9-1.5-2.5-2.8s-0.9-2.9-0.9-4.9c0-3.1,0.8-5.4,2.3-7c1.6-1.6,3.8-2.4,6.8-2.4
			c0.7,0,1.5,0.1,2.3,0.2V306h4.2v25.7h-3.5l-0.3-1.8h-0.2c-0.5,0.7-1.2,1.2-2,1.6s-1.7,0.6-2.7,0.6
			C122.1,332,120.9,331.7,119.9,331.1 M126.5,328.1c0.6-0.3,1.1-0.6,1.5-1.2v-9.5c-0.7-0.2-1.5-0.2-2.3-0.2c-1.7,0-2.9,0.5-3.8,1.4
			c-0.8,0.9-1.2,2.4-1.2,4.4s0.3,3.4,1,4.3c0.7,0.8,1.7,1.2,2.9,1.2C125.2,328.5,125.9,328.4,126.5,328.1"/>
	</g>
	<g>
		<path class="st1" d="M150.3,324.2h-10.7c0.1,1.1,0.3,2,0.6,2.7c0.4,0.7,0.9,1.1,1.7,1.4s1.8,0.4,3.1,0.4s2.7-0.2,4.4-0.6v3.2
			c-1.7,0.4-3.3,0.6-4.9,0.6c-2.1,0-3.8-0.3-5.1-0.9s-2.3-1.6-3-2.9s-1-3-1-5.1c0-1.9,0.3-3.6,0.9-4.9c0.6-1.3,1.5-2.3,2.6-3
			s2.5-1,4.2-1c2.4,0,4.2,0.8,5.4,2.3s1.8,3.8,1.8,6.8V324.2z M140.5,317.9c-0.6,0.8-0.9,2-0.9,3.8h6.9c0-1.8-0.3-3.1-0.9-3.8
			c-0.6-0.8-1.4-1.1-2.5-1.1C141.9,316.7,141.1,317.1,140.5,317.9"/>
	</g>
	<g>
		<path class="st1" d="M177.9,321.4c0.8,1,1.2,2.2,1.2,3.7s-0.4,2.7-1.1,3.7c-0.7,1-1.9,1.8-3.6,2.3c-1.6,0.5-3.8,0.8-6.5,0.8
			c-1,0-2,0-3.2-0.1c-1.1-0.1-2.2-0.2-3.2-0.3v-22.9c1.1-0.2,2.2-0.4,3.5-0.5c1.2-0.1,2.5-0.2,3.7-0.2c3.4,0,5.8,0.5,7.4,1.6
			c1.5,1.1,2.3,2.7,2.3,4.9c0,1.3-0.3,2.4-1,3.3s-1.6,1.6-2.9,1.9C176,319.8,177.1,320.4,177.9,321.4 M165.8,311.3v6.7h3.8
			c1.7,0,3-0.3,3.7-0.9c0.8-0.6,1.1-1.4,1.1-2.6c0-0.8-0.2-1.5-0.5-2s-0.9-0.9-1.6-1.1c-0.8-0.2-1.8-0.4-3-0.4
			S166.9,311.1,165.8,311.3 M172.7,328.3c0.9-0.3,1.5-0.7,1.9-1.2c0.4-0.6,0.6-1.3,0.6-2.1c0-1.3-0.4-2.2-1.2-2.8
			c-0.8-0.6-2.1-0.9-3.9-0.9h-4.3v7.4c0.9,0.1,2,0.2,3.2,0.2C170.6,328.7,171.8,328.6,172.7,328.3"/>
	</g>
	<g>
		<path class="st1" d="M192.2,314.7c1.1,0.4,1.9,1.2,2.4,2.2s0.8,2.4,0.8,4.1v10.7H192l-0.3-1.8h-0.2c-0.5,0.7-1.2,1.2-2,1.6
			s-1.7,0.5-2.7,0.5c-1.1,0-2.1-0.2-2.9-0.6c-0.8-0.4-1.5-1-1.9-1.7s-0.7-1.6-0.7-2.6c0-1.6,0.6-2.9,1.7-3.7
			c1.1-0.9,2.8-1.4,5.2-1.6l3.2-0.3v-0.7c0-0.9-0.1-1.6-0.4-2.1c-0.3-0.5-0.7-0.9-1.3-1.1s-1.4-0.3-2.4-0.3c-0.7,0-1.5,0.1-2.3,0.2
			s-1.6,0.3-2.4,0.5v-3.2c0.8-0.2,1.7-0.4,2.6-0.6c1-0.1,1.9-0.2,2.8-0.2C189.7,314,191.1,314.2,192.2,314.7 M189.8,328.6
			c0.6-0.2,1.1-0.6,1.6-1.1v-3.7l-2.8,0.3c-1.1,0.1-1.9,0.4-2.4,0.8s-0.8,1-0.8,1.8s0.2,1.3,0.7,1.8c0.5,0.4,1.1,0.6,2,0.6
			C188.7,329,189.3,328.9,189.8,328.6"/>
	</g>
	<g>
		<path class="st1" d="M199.4,314.3h3.5l0.3,1.8h0.2c0.7-0.7,1.4-1.2,2.3-1.6c0.9-0.4,1.9-0.5,2.9-0.5c1.8,0,3.2,0.5,4.2,1.6
			s1.6,2.7,1.6,5v11h-4.2v-10.8c0-1.2-0.2-2-0.7-2.5s-1.2-0.7-2.1-0.7c-0.7,0-1.4,0.1-2.1,0.4c-0.7,0.3-1.2,0.7-1.7,1.3v12.3h-4.2
			V314.3z"/>
	</g>
	<g>
		<path class="st1" d="M219.8,329.8c-1.5-1.5-2.2-3.7-2.2-6.8c0-3,0.8-5.3,2.3-6.8s3.8-2.2,6.8-2.2c1.3,0,2.6,0.1,3.8,0.4v3.3
			c-1.2-0.2-2.2-0.4-3.2-0.4c-1.2,0-2.3,0.2-3,0.6c-0.8,0.4-1.4,1-1.8,1.8c-0.4,0.8-0.6,1.9-0.6,3.2c0,2,0.4,3.4,1.2,4.3
			s2,1.3,3.7,1.3c0.5,0,1.1-0.1,1.7-0.2c0.6-0.1,1.3-0.3,2-0.5v3.3c-1.4,0.4-2.8,0.7-4.3,0.7C223.3,332,221.2,331.2,219.8,329.8"/>
	</g>
	<g>
		<path class="st1" d="M234.4,329.7c-1.4-1.5-2.1-3.7-2.1-6.7s0.7-5.3,2.1-6.7c1.4-1.5,3.4-2.2,6-2.2s4.6,0.7,6,2.2s2.1,3.7,2.1,6.7
			c0,2-0.3,3.7-1,5s-1.6,2.3-2.8,3s-2.6,1-4.3,1C237.8,332,235.8,331.2,234.4,329.7 M243.2,327.5c0.7-0.9,1-2.3,1-4.4
			s-0.3-3.6-1-4.5s-1.6-1.3-2.9-1.3c-1.3,0-2.3,0.4-2.9,1.3c-0.7,0.9-1,2.3-1,4.4c0,1.4,0.2,2.6,0.5,3.4s0.7,1.5,1.3,1.8
			c0.6,0.4,1.3,0.5,2.1,0.5C241.6,328.8,242.6,328.3,243.2,327.5"/>
	</g>
	<g>
		<path class="st1" d="M259.9,308.5c2.3-0.4,4.5-0.7,6.7-0.7c3.4,0,5.9,0.7,7.6,2c1.7,1.4,2.5,3.5,2.5,6.3c0,2.7-0.8,4.8-2.5,6.2
			c-1.7,1.4-4.2,2.1-7.6,2.1c-0.5,0-1.4,0-2.6-0.1v7.2h-4.2v-23H259.9z M271.2,320.1c0.9-0.8,1.4-2.1,1.4-3.9s-0.5-3.1-1.4-3.9
			s-2.3-1.2-4.3-1.2c-1,0-1.9,0.1-2.8,0.2v9.8c0.7,0.1,1.6,0.2,2.6,0.2C268.8,321.3,270.3,320.9,271.2,320.1"/>
	</g>
	<g>
		<path class="st1" d="M280.1,314.3h3.4l0.3,2.3h0.2c0.5-0.8,1.2-1.4,2-1.8s1.7-0.6,2.7-0.6c0.5,0,0.9,0,1.4,0.1v3.8
			c-0.4-0.1-1-0.1-1.6-0.1c-0.8,0-1.6,0.2-2.4,0.5s-1.4,0.8-1.9,1.4v11.8H280v-17.4H280.1z"/>
	</g>
	<g>
		<path class="st1" d="M293.5,329.7c-1.4-1.5-2.1-3.7-2.1-6.7s0.7-5.3,2.1-6.7c1.4-1.5,3.4-2.2,6-2.2s4.6,0.7,6,2.2s2.1,3.7,2.1,6.7
			c0,2-0.3,3.7-1,5s-1.6,2.3-2.8,3c-1.2,0.7-2.6,1-4.3,1C296.9,332,294.9,331.2,293.5,329.7 M302.4,327.5c0.7-0.9,1-2.3,1-4.4
			s-0.3-3.6-1-4.5s-1.6-1.3-2.9-1.3s-2.3,0.4-2.9,1.3c-0.7,0.9-1,2.3-1,4.4c0,1.4,0.2,2.6,0.5,3.4s0.7,1.5,1.3,1.8
			c0.6,0.4,1.3,0.5,2.1,0.5C300.7,328.8,301.7,328.3,302.4,327.5"/>
	</g>
	<g>
		<polygon class="st1" points="322.1,314.3 326.3,314.3 320,331.7 314.7,331.7 308.5,314.3 312.8,314.3 317.5,327.9 		"/>
	</g>
	<g>
		<path class="st1" d="M328.5,310.7c-0.4-0.4-0.7-0.9-0.7-1.7c0-0.7,0.2-1.3,0.7-1.7c0.4-0.4,1.1-0.6,2-0.6s1.5,0.2,2,0.6
			c0.4,0.4,0.7,1,0.7,1.7s-0.2,1.3-0.7,1.7c-0.4,0.4-1.1,0.6-2,0.6S329,311.1,328.5,310.7 M328.4,314.3h4.2v17.4h-4.2V314.3z"/>
	</g>
	<g>
		<path class="st1" d="M336.7,314.3h3.5l0.3,1.8h0.2c0.7-0.7,1.4-1.2,2.3-1.6s1.9-0.5,2.9-0.5c1.8,0,3.2,0.5,4.2,1.6s1.6,2.7,1.6,5
			v11h-4.2v-10.8c0-1.2-0.2-2-0.7-2.5s-1.2-0.7-2.1-0.7c-0.7,0-1.4,0.1-2.1,0.4s-1.2,0.7-1.7,1.3v12.3h-4.2L336.7,314.3L336.7,314.3
			z"/>
	</g>
	<g>
		<path class="st1" d="M357,329.8c-1.5-1.5-2.2-3.7-2.2-6.8c0-3,0.8-5.3,2.3-6.8s3.8-2.2,6.8-2.2c1.3,0,2.6,0.1,3.8,0.4v3.3
			c-1.2-0.2-2.2-0.4-3.2-0.4c-1.2,0-2.3,0.2-3,0.6c-0.8,0.4-1.4,1-1.8,1.8s-0.6,1.9-0.6,3.2c0,2,0.4,3.4,1.2,4.3
			c0.8,0.9,2,1.3,3.7,1.3c0.5,0,1.1-0.1,1.7-0.2s1.3-0.3,2-0.5v3.3c-1.4,0.4-2.8,0.7-4.3,0.7C360.6,332,358.5,331.2,357,329.8"/>
	</g>
	<g>
		<path class="st1" d="M370.8,310.7c-0.4-0.4-0.7-0.9-0.7-1.7c0-0.7,0.2-1.3,0.7-1.7c0.4-0.4,1.1-0.6,2-0.6s1.5,0.2,2,0.6
			c0.4,0.4,0.7,1,0.7,1.7s-0.2,1.3-0.7,1.7c-0.4,0.4-1.1,0.6-2,0.6S371.3,311.1,370.8,310.7 M370.7,314.3h4.2v17.4h-4.2V314.3z"/>
	</g>
	<g>
		<path class="st1" d="M389.1,314.7c1.1,0.4,1.9,1.2,2.4,2.2s0.8,2.4,0.8,4.1v10.7h-3.5l-0.3-1.8h-0.2c-0.5,0.7-1.2,1.2-2,1.6
			s-1.7,0.5-2.7,0.5c-1.1,0-2.1-0.2-2.9-0.6s-1.5-1-1.9-1.7s-0.7-1.6-0.7-2.6c0-1.6,0.6-2.9,1.7-3.7c1.1-0.9,2.8-1.4,5.2-1.6
			l3.2-0.3v-0.7c0-0.9-0.1-1.6-0.4-2.1s-0.7-0.9-1.3-1.1c-0.6-0.2-1.4-0.3-2.4-0.3c-0.7,0-1.5,0.1-2.3,0.2s-1.6,0.3-2.4,0.5v-3.2
			c0.8-0.2,1.7-0.4,2.6-0.6c1-0.1,1.9-0.2,2.8-0.2C386.6,314,388,314.2,389.1,314.7 M386.7,328.6c0.6-0.2,1.1-0.6,1.6-1.1v-3.7
			l-2.8,0.3c-1.1,0.1-1.9,0.4-2.4,0.8s-0.8,1-0.8,1.8s0.2,1.3,0.7,1.8c0.5,0.4,1.1,0.6,2,0.6C385.6,329,386.2,328.9,386.7,328.6"/>
	</g>
</g>
</svg>
